<svg width="29" height="27" viewBox="0 0 29 27" fill="none" xmlns="http://www.w3.org/2000/svg">
<path d="M21.4507 20.5664C19.6742 20.5647 18.2326 22.0035 18.2308 23.78C18.2291 25.5566 19.6679 26.9981 21.4445 26.9999C23.221 27.0016 24.6626 25.5628 24.6643 23.7863V23.7832C24.6626 22.0085 23.2253 20.5699 21.4507 20.5664Z" fill="#C5C5C5"/>
<path d="M27.156 5.16297C27.0791 5.14807 27.0009 5.1405 26.9225 5.14038H7.33674L7.02654 3.06515C6.83327 1.68696 5.65441 0.661557 4.2627 0.661133H1.74079C1.05551 0.661133 0.5 1.21664 0.5 1.90192C0.5 2.5872 1.05551 3.1427 1.74079 3.1427H4.26579C4.42356 3.14155 4.55709 3.25903 4.57599 3.4157L6.48679 16.5122C6.74876 18.1763 8.1802 19.404 9.86484 19.4094H22.7721C24.394 19.4115 25.7932 18.2716 26.1191 16.6828L28.1385 6.6169C28.2687 5.9441 27.8288 5.29317 27.156 5.16297Z" fill="#C5C5C5"/>
<path d="M13.5705 23.6454C13.4949 21.921 12.0718 20.5635 10.3457 20.5695C8.57057 20.6412 7.18971 22.1384 7.26145 23.9135C7.33027 25.6167 8.7158 26.9705 10.4201 26.9999H10.4977C12.2725 26.9221 13.6482 25.4202 13.5705 23.6454Z" fill="#C5C5C5"/>
</svg>
