<svg width="33" height="24" viewBox="0 0 33 24" fill="none" xmlns="http://www.w3.org/2000/svg">
<path d="M20.9029 20.9922C18.9219 20.9922 16.9854 20.4048 15.3382 19.3042C13.6911 18.2036 12.4073 16.6393 11.6492 14.8091C10.8911 12.9789 10.6928 10.965 11.0792 9.02204C11.4657 7.0791 12.4197 5.2944 13.8204 3.89362C15.2212 2.49284 17.0059 1.5389 18.9489 1.15242C20.8918 0.765948 22.9057 0.964301 24.7359 1.7224C26.5661 2.48049 28.1304 3.76429 29.231 5.41143C30.3316 7.05857 30.919 8.99509 30.919 10.9761C30.9159 13.6316 29.8596 16.1774 27.9819 18.0551C26.1042 19.9328 23.5584 20.9891 20.9029 20.9922ZM20.9029 3.18577C19.3621 3.18577 17.8559 3.64266 16.5748 4.49868C15.2937 5.35469 14.2952 6.57137 13.7056 7.99486C13.116 9.41836 12.9617 10.9847 13.2623 12.4959C13.5629 14.0071 14.3048 15.3952 15.3943 16.4847C16.4838 17.5742 17.8719 18.3161 19.3831 18.6167C20.8943 18.9173 22.4606 18.763 23.8841 18.1734C25.3076 17.5838 26.5243 16.5853 27.3803 15.3042C28.2363 14.023 28.6932 12.5169 28.6932 10.9761C28.6909 8.91069 27.8693 6.93056 26.4089 5.4701C24.9484 4.00965 22.9683 3.18813 20.9029 3.18577Z" fill="#C5C5C5"/>
<path d="M31.2903 23.9598C31.1316 23.9598 30.9747 23.926 30.8301 23.8604C30.6855 23.7949 30.5566 23.6993 30.452 23.5799L25.9262 18.3953C25.7319 18.1729 25.634 17.8825 25.6539 17.588C25.6738 17.2934 25.8099 17.0188 26.0322 16.8246C26.2546 16.6304 26.545 16.5324 26.8396 16.5523C27.1341 16.5722 27.4087 16.7083 27.6029 16.9307L32.1287 22.1094C32.271 22.2702 32.3638 22.4688 32.3958 22.6811C32.4277 22.8935 32.3976 23.1106 32.309 23.3062C32.2203 23.5018 32.077 23.6676 31.8963 23.7836C31.7155 23.8995 31.5051 23.9607 31.2903 23.9598Z" fill="#C5C5C5"/>
<path d="M10.5161 4.66916H1.6129C1.31774 4.66916 1.03467 4.55191 0.825962 4.3432C0.617252 4.13449 0.5 3.85142 0.5 3.55626C0.5 3.2611 0.617252 2.97803 0.825962 2.76932C1.03467 2.56061 1.31774 2.44336 1.6129 2.44336H10.5161C10.8113 2.44336 11.0944 2.56061 11.3031 2.76932C11.5118 2.97803 11.629 3.2611 11.629 3.55626C11.629 3.85142 11.5118 4.13449 11.3031 4.3432C11.0944 4.55191 10.8113 4.66916 10.5161 4.66916Z" fill="#C5C5C5"/>
<path d="M7.54838 10.6046H1.6129C1.31774 10.6046 1.03467 10.4874 0.825962 10.2787C0.617252 10.0699 0.5 9.78688 0.5 9.49172C0.5 9.19656 0.617252 8.91349 0.825962 8.70478C1.03467 8.49607 1.31774 8.37881 1.6129 8.37881H7.54838C7.84354 8.37881 8.12661 8.49607 8.33532 8.70478C8.54403 8.91349 8.66129 9.19656 8.66129 9.49172C8.66129 9.78688 8.54403 10.0699 8.33532 10.2787C8.12661 10.4874 7.84354 10.6046 7.54838 10.6046Z" fill="#C5C5C5"/>
<path d="M9.03225 16.5401H1.6129C1.31774 16.5401 1.03467 16.4229 0.825962 16.2141C0.617252 16.0054 0.5 15.7224 0.5 15.4272C0.5 15.132 0.617252 14.849 0.825962 14.6403C1.03467 14.4316 1.31774 14.3143 1.6129 14.3143H9.03225C9.32741 14.3143 9.61048 14.4316 9.81919 14.6403C10.0279 14.849 10.1452 15.132 10.1452 15.4272C10.1452 15.7224 10.0279 16.0054 9.81919 16.2141C9.61048 16.4229 9.32741 16.5401 9.03225 16.5401Z" fill="#C5C5C5"/>
</svg>
