<svg width="26" height="26" viewBox="0 0 26 26" fill="none" xmlns="http://www.w3.org/2000/svg">
<path d="M25.6562 13.0383C25.5886 13.2028 25.4738 13.3436 25.3263 13.443C25.1788 13.5424 25.0051 13.5959 24.8272 13.5968H22.124V22.6044C22.124 23.3211 21.8392 24.0085 21.3323 24.5153C20.8253 25.022 20.1378 25.3067 19.4208 25.3067H15.8165C15.5776 25.3067 15.3484 25.2118 15.1794 25.0429C15.0104 24.874 14.9155 24.6449 14.9155 24.406V19.0014C14.9155 18.7625 14.8205 18.5334 14.6516 18.3644C14.4826 18.1955 14.2534 18.1006 14.0144 18.1006H12.2123C11.9733 18.1006 11.7441 18.1955 11.5751 18.3644C11.4061 18.5334 11.3112 18.7625 11.3112 19.0014V24.406C11.3112 24.6449 11.2163 24.874 11.0473 25.0429C10.8783 25.2118 10.6491 25.3067 10.4101 25.3067H6.80585C6.08891 25.3067 5.40134 25.022 4.89439 24.5153C4.38744 24.0085 4.10264 23.3211 4.10264 22.6044V13.5968H1.39943C1.22154 13.5959 1.04789 13.5424 0.900367 13.443C0.752844 13.3436 0.63805 13.2028 0.570451 13.0383C0.501448 12.8743 0.482595 12.6935 0.516272 12.5187C0.549948 12.344 0.634646 12.1831 0.759676 12.0565L12.4736 0.346523C12.5573 0.262096 12.657 0.195084 12.7668 0.149353C12.8766 0.103623 12.9944 0.0800781 13.1133 0.0800781C13.2323 0.0800781 13.3501 0.103623 13.4599 0.149353C13.5697 0.195084 13.6693 0.262096 13.7531 0.346523L25.467 12.0565C25.592 12.1831 25.6767 12.344 25.7104 12.5187C25.7441 12.6935 25.7252 12.8743 25.6562 13.0383Z" fill="#B7D635"/>
</svg>
