<svg width="35" height="31" viewBox="0 0 35 31" fill="none" xmlns="http://www.w3.org/2000/svg">
<g clip-path="url(#clip0_0_1136)">
<path d="M32.8 2H2.2C1.74913 2 1.31673 2.18061 0.997918 2.5021C0.679107 2.82359 0.5 3.25963 0.5 3.71429V10.5714H2.0181C3.7113 10.5714 5.2821 11.7389 5.5541 13.424C5.63696 13.9161 5.61234 14.4204 5.48196 14.9019C5.35158 15.3834 5.11857 15.8304 4.7992 16.2117C4.47984 16.593 4.0818 16.8994 3.63288 17.1096C3.18395 17.3198 2.69495 17.4286 2.2 17.4286H0.5V24.2857C0.5 24.7404 0.679107 25.1764 0.997918 25.4979C1.31673 25.8194 1.74913 26 2.2 26H32.8C33.2509 26 33.6833 25.8194 34.0021 25.4979C34.3209 25.1764 34.5 24.7404 34.5 24.2857V17.4286H32.8C32.3051 17.4286 31.816 17.3198 31.3671 17.1096C30.9182 16.8994 30.5202 16.593 30.2008 16.2117C29.8814 15.8304 29.6484 15.3834 29.518 14.9019C29.3877 14.4204 29.363 13.9161 29.4459 13.424C29.7179 11.7389 31.2887 10.5714 32.9819 10.5714H34.5V3.71429C34.5 3.25963 34.3209 2.82359 34.0021 2.5021C33.6833 2.18061 33.2509 2 32.8 2ZM12.4 8.85714C12.8509 8.85714 13.2833 9.03776 13.6021 9.35925C13.9209 9.68074 14.1 10.1168 14.1 10.5714C14.1 11.0261 13.9209 11.4621 13.6021 11.7836C13.2833 12.1051 12.8509 12.2857 12.4 12.2857C11.9491 12.2857 11.5167 12.1051 11.1979 11.7836C10.8791 11.4621 10.7 11.0261 10.7 10.5714C10.7 10.1168 10.8791 9.68074 11.1979 9.35925C11.5167 9.03776 11.9491 8.85714 12.4 8.85714ZM11.04 19.8286L21.24 6.11429L23.96 8.17143L13.76 21.8857L11.04 19.8286ZM22.6 19.1429C22.1491 19.1429 21.7167 18.9622 21.3979 18.6408C21.0791 18.3193 20.9 17.8832 20.9 17.4286C20.9 16.9739 21.0791 16.5379 21.3979 16.2164C21.7167 15.8949 22.1491 15.7143 22.6 15.7143C23.0509 15.7143 23.4833 15.8949 23.8021 16.2164C24.1209 16.5379 24.3 16.9739 24.3 17.4286C24.3 17.8832 24.1209 18.3193 23.8021 18.6408C23.4833 18.9622 23.0509 19.1429 22.6 19.1429Z" fill="#C5C5C5"/>
</g>
<defs>
<clipPath id="clip0_0_1136">
<rect width="34" height="34" fill="white" transform="translate(0.5 -3)"/>
</clipPath>
</defs>
</svg>
