<svg width="34" height="34" viewBox="0 0 34 34" fill="none" xmlns="http://www.w3.org/2000/svg">
<rect width="34" height="34" rx="17" fill="#F8F8F8"/>
<path d="M11.2197 21.7197C10.9268 22.0126 10.9268 22.4874 11.2197 22.7803C11.5126 23.0732 11.9874 23.0732 12.2803 22.7803L17 18.0607L21.7197 22.7803C22.0126 23.0732 22.4874 23.0732 22.7803 22.7803C23.0732 22.4874 23.0732 22.0126 22.7803 21.7197L18.0607 17L22.7803 12.2803C23.0732 11.9874 23.0732 11.5126 22.7803 11.2197C22.4874 10.9268 22.0126 10.9268 21.7197 11.2197L17 15.9393L12.2803 11.2197C11.9874 10.9268 11.5126 10.9268 11.2197 11.2197C10.9268 11.5126 10.9268 11.9874 11.2197 12.2803L15.9393 17L11.2197 21.7197Z" fill="black"/>
</svg>
