<svg width="18" height="15" viewBox="0 0 18 15" fill="none" xmlns="http://www.w3.org/2000/svg">
<path d="M8.6 2.45621L9 2.98954L9.4 2.45621C9.76822 1.96525 10.2457 1.56676 10.7946 1.2923C11.3435 1.01785 11.9488 0.874959 12.5625 0.874959C13.6109 0.874959 14.6164 1.29145 15.3578 2.0328C16.0991 2.77416 16.5156 3.77965 16.5156 4.82808C16.5156 6.89618 15.3184 9.10216 12.7773 11.3884C11.6273 12.4223 10.3752 13.3366 9.0403 14.1172C9.03057 14.1225 9.01963 14.1252 9.00854 14.125L9.00854 14.1248L8.99498 14.125C8.98117 14.1251 8.96757 14.1216 8.95553 14.1149L8.95392 14.1139C8.77621 14.0125 6.9021 12.9423 5.06911 11.2558C3.1968 9.53308 1.48438 7.27395 1.48438 4.82808C1.48438 3.99839 1.74543 3.18973 2.23056 2.51665C2.71569 1.84357 3.4003 1.34019 4.18741 1.07782C4.97453 0.815449 5.82424 0.807385 6.61619 1.05477C7.40815 1.30216 8.10219 1.79246 8.6 2.45621Z" stroke="#DADADA"/>
</svg>
