<svg width="28" height="28" viewBox="0 0 28 28" fill="none" xmlns="http://www.w3.org/2000/svg">
<path fill-rule="evenodd" clip-rule="evenodd" d="M23.3333 14C23.3333 13.3557 22.811 12.8333 22.1667 12.8333H5.83333C5.18899 12.8333 4.66666 13.3557 4.66666 14C4.66666 14.6443 5.18899 15.1667 5.83333 15.1667H22.1667C22.811 15.1667 23.3333 14.6443 23.3333 14Z" fill="white"/>
<path fill-rule="evenodd" clip-rule="evenodd" d="M14.825 5.00837C14.3694 4.55275 13.6307 4.55275 13.175 5.00837L5.00838 13.175C4.55277 13.6306 4.55277 14.3693 5.00838 14.8249L13.175 22.9916C13.6307 23.4472 14.3694 23.4472 14.825 22.9916C15.2806 22.536 15.2806 21.7973 14.825 21.3417L7.48325 14L14.825 6.65828C15.2806 6.20267 15.2806 5.46398 14.825 5.00837Z" fill="white"/>
</svg>
