<svg width="21" height="21" viewBox="0 0 21 21" fill="none" xmlns="http://www.w3.org/2000/svg">
<path d="M9.1766 0C4.11948 0 0 4.11906 0 9.17569C0 14.2323 4.11948 18.3594 9.1766 18.3594C11.3366 18.3594 13.3232 17.6025 14.8933 16.3457L18.7157 20.1658C18.9086 20.3507 19.1663 20.4527 19.4334 20.4499C19.7006 20.4472 19.9561 20.34 20.1452 20.1512C20.3343 19.9624 20.4419 19.7071 20.445 19.44C20.4481 19.1728 20.3465 18.915 20.1618 18.7219L16.3394 14.8999C17.5973 13.3275 18.3552 11.338 18.3552 9.17569C18.3552 4.11906 14.2337 0 9.1766 0ZM9.1766 2.03951C13.1314 2.03951 16.3135 5.22131 16.3135 9.17569C16.3135 13.1301 13.1314 16.3199 9.1766 16.3199C5.22181 16.3199 2.03969 13.1301 2.03969 9.17569C2.03969 5.22131 5.22181 2.03951 9.1766 2.03951Z" fill="#4E575B"/>
</svg>
